# xmcd
#
# Track frame offsets:
# 150
# 15102
# 30396
# 46700
# 61645
# 78694
# 98745
# 113804
# 131402
# 147611
# 159980
# 175622
# 191834
# 207832
# 222798
# 238969
# 258303
# 271740
# 288191
# 307197
# 330950
#
# Disc length: 4605 seconds
#
#
# Revision: 0
# Processed by: cddbd v1.5.2PL0 Copyright (c) Steve Scherf et al.
# Submitted via: FreeRIP 2.945 
#
DISCID=1811fb15
DTITLE=O Melhor do Acústico Sertanejo 2006 - O Melhor do Acústico Sertanejo 2006
DYEAR=1900
DGENRE=Country
TTITLE0=Caso Marcado - Cezar Minotti e Fabiano
TTITLE1=Só de Você - João Neto e Frederico
TTITLE2=Por Toda a Vida - Nechivile
TTITLE3=Magia e Mistério - João Bosco e Vinicius
TTITLE4=Quero Provar Que Te Amo - João Neto e Frederico
TTITLE5=Tentei Te Esquecer - Nechivile
TTITLE6=Leilão - Cezar Minotti e Fabiano
TTITLE7=Tatuagem - João Bosco e Vinicius
TTITLE8=Amor Sem Fim - Nechivile
TTITLE9=Mensagem Pra Ela - Cezar Minotti e Fabiano
TTITLE10=Pega Fogo - João Neto e Frederico
TTITLE11=Magia - João Bosco e Vinicius
TTITLE12=Saudade Matadeira - Nechivile
TTITLE13=Mulher Breteira - João Neto e Frederico
TTITLE14=Me Apaixonei - Cezar Minotti e Fabiano
TTITLE15=Viver Sem Ar - João Neto e Frederico
TTITLE16=Como Um Anjo - Cezar Minotti e Fabiano
TTITLE17=A Gente Se Enrosca - Nechivile
TTITLE18=Pout-Porre(Galopeira, Vá ProInferno Com Seu Amor, Pedaço de Poema) - João Neto e Frederico
TTITLE19=Pout-Porre(Nâo Aceito Seu Adeus, Amargurado, Brigas)
TTITLE20=Sublime Renúncia - João Neto e Frederico
EXTD=
EXTT0=
EXTT1=
EXTT2=
EXTT3=
EXTT4=
EXTT5=
EXTT6=
EXTT7=
EXTT8=
EXTT9=
EXTT10=
EXTT11=
EXTT12=
EXTT13=
EXTT14=
EXTT15=
EXTT16=
EXTT17=
EXTT18=
EXTT19=
EXTT20=
PLAYORDER=
